<svg id="Capa_1" enable-background="new 0 0 512 512" height="512" viewBox="0 0 512 512" width="512" xmlns="http://www.w3.org/2000/svg"><g><g><path d="m148.563 204.368c-33.841 10.941-54.933 44.978-49.324 80.401l18.586 117.395 52.63-68.449" fill="#d1aee5"/><path d="m341.546 333.715 52.63 68.449 18.586-117.395c5.608-35.423-15.483-69.46-49.324-80.401" fill="#d1aee5"/><path d="m198.488 381.891c-3.583 33.453 6.984 66.385 31.284 92.392l26.228 27.717 26.228-27.717c24.3-26.007 34.867-58.939 31.284-92.392" fill="#ff7d97"/><path d="m331.954 102.633h-151.908c-37.544 71.892-40.229 155.796-8.318 229.421 7.616 17.573 17.203 34.559 28.757 50.657h111.029c11.554-16.098 21.141-33.085 28.757-50.657 31.912-73.625 29.227-157.529-8.317-229.421z" fill="#faf7f5"/><path d="m332.196 102.633c-14.151-26.155-32.656-51.221-56.059-73.561l-20.137-19.072-20.138 19.072c-23.403 22.341-41.908 47.406-56.059 73.561z" fill="#c193dc"/><path d="m219.957 340.782.208 41.929h71.67v-135.718h28.8l-64.635-104.36-64.635 104.36h28.8" fill="#ccf5fc"/></g><g><path d="m219.96 305.39c-4.171 0-8.016-2.695-9.415-6.631-1.379-3.879-.204-8.327 2.946-10.991 3.283-2.777 8.09-3.122 11.745-.863 3.497 2.161 5.337 6.417 4.524 10.445-.932 4.616-5.087 8.04-9.8 8.04z"/><path d="m411.41 230.146c-9.501-15.44-23.818-27.307-40.64-33.786-3.602-33.162-13.266-65.804-28.935-96.39-.199-.72-.48-1.423-.844-2.096-15.381-28.431-34.878-54.013-57.978-76.063l-20.137-19.072c-3.855-3.652-9.896-3.652-13.752 0l-20.167 19.099c-23.07 22.023-42.567 47.605-57.948 76.036-.364.673-.645 1.377-.844 2.097-15.668 30.586-25.331 63.227-28.934 96.389-16.823 6.479-31.139 18.347-40.641 33.787-10.321 16.774-14.31 36.729-11.229 56.186l18.586 117.396c.625 3.946 3.538 7.142 7.41 8.128.818.208 1.646.309 2.467.309 3.06 0 6.007-1.407 7.928-3.904l43.905-57.1c5.522 10.904 11.773 21.489 18.692 31.644-3.334 36.306 8.74 71.148 34.16 98.352l26.227 27.718c1.889 1.996 4.516 3.127 7.264 3.127s5.375-1.131 7.264-3.127l26.271-27.764c25.378-27.159 37.451-61.999 34.117-98.306 6.918-10.155 13.17-20.74 18.692-31.645l43.904 57.101c1.921 2.498 4.868 3.904 7.928 3.904.82 0 1.648-.101 2.467-.309 3.872-.986 6.785-4.182 7.41-8.128l18.586-117.396c3.081-19.458-.908-39.412-11.229-56.187zm-168.672-193.814 13.262-12.56 13.232 12.532c17.49 16.696 32.788 35.592 45.621 56.328h-117.707c12.833-20.735 28.125-39.626 45.592-56.3zm-118.672 341.309-14.951-94.435c-4.156-26.245 8.376-51.404 30.596-64.07-.941 37.669 5.88 75.554 20.545 111.438zm150.898 89.768-18.964 20.041-18.921-19.995c-19.523-20.893-29.722-47.13-29.253-74.744h96.348c.47 27.614-9.725 53.846-29.21 74.698zm31.359-94.698h-4.488v-115.718h18.801c3.628 0 6.972-1.965 8.736-5.135 1.766-3.169 1.676-7.046-.234-10.131l-64.636-104.36c-1.823-2.943-5.04-4.734-8.502-4.734s-6.679 1.791-8.502 4.734l-64.636 104.36c-1.91 3.085-2 6.962-.234 10.131 1.765 3.17 5.108 5.135 8.736 5.135h53.474c5.522 0 10-4.478 10-10s-4.478-10-10-10h-35.518l46.68-75.368 46.68 75.368h-10.845c-5.522 0-10 4.478-10 10v125.718h-51.72l-.158-31.979c-.027-5.506-4.499-9.95-9.999-9.95h-.051c-5.522.027-9.977 4.526-9.95 10.05l.158 31.88h-4.438c-9.711-14.093-18.034-29.085-24.773-44.634-30.131-69.517-28.143-147.688 5.28-215.444h139.633c33.423 67.755 35.412 145.925 5.281 215.443-6.742 15.549-15.064 30.541-24.775 44.634zm96.562-89.506-14.951 94.435-36.189-47.068c14.664-35.883 21.486-73.769 20.545-111.437 22.219 12.666 34.75 37.825 30.595 64.07z"/></g></g></svg>