<?xml version="1.0" encoding="iso-8859-1"?>
<!-- Generator: Adobe Illustrator 16.0.0, SVG Export Plug-In . SVG Version: 6.00 Build 0)  -->
<!DOCTYPE svg PUBLIC "-//W3C//DTD SVG 1.1//EN" "http://www.w3.org/Graphics/SVG/1.1/DTD/svg11.dtd">
<svg version="1.1" id="Capa_1" xmlns="http://www.w3.org/2000/svg" xmlns:xlink="http://www.w3.org/1999/xlink" x="0px" y="0px"
	 width="592.959px" height="592.959px" viewBox="0 0 592.959 592.959" style="enable-background:new 0 0 592.959 592.959;"
	 xml:space="preserve">
<g>
	<g>
		<path fill="#55b7fc" d="M375.797,268.348c0-26.903-40.788-40.979-81.082-40.979c-9.421,0-18.858,0.779-27.805,2.301
			c5.369,6.593,9.18,14.492,10.881,23.15c5.182-0.6,10.8-0.971,16.924-0.971c36.646,0,56.41,12.256,56.602,16.5
			c0,4.109-20.073,16.5-56.602,16.5c-7.369,0-14.031-0.522-20.033-1.359c-3.635,8.646-9.535,16.084-16.912,21.682
			c11.505,2.758,24.248,4.157,36.944,4.157C335.009,309.327,375.797,295.251,375.797,268.348z"/>
		<path fill="#55b7fc" d="M237.941,405.529c-0.004-0.347-0.053-0.681-0.053-1.027c0-8.205,1.709-16.011,4.765-23.105
			C110.152,370.895,24.48,322.583,24.48,277.091c0-9.196,3.558-18.503,10.233-27.593c-6.312-5.585-11.424-12.48-14.868-20.294
			C7.054,243.978,0,260.098,0,277.091C0,341.62,100.658,393.841,237.941,405.529z"/>
		<path fill="#55b7fc" d="M296.481,146.188c-66.369,0-126.958,9.184-175.852,24.864c4.802,6.524,8.307,14.043,10.078,22.224
			c44.382-13.815,100.8-22.607,165.774-22.607c162.706,0,272.001,55.027,272.001,106.423c0,45.492-85.672,93.799-218.178,104.305
			c3.061,7.095,4.766,14.9,4.766,23.105c0,0.347-0.045,0.681-0.053,1.027c137.283-11.688,237.941-63.909,237.941-128.438
			C592.963,203.688,462.733,146.188,296.481,146.188z"/>
		<path fill="#478df7" d="M296.481,362.229c-15.3,0-28.654,8.152-36.075,20.322c-3.905,6.401-6.193,13.9-6.193,21.946
			c0,0.747,0.073,1.474,0.11,2.208c1.155,22.313,19.56,40.065,42.159,40.065c22.6,0,41.004-17.752,42.158-40.065
			c0.041-0.734,0.11-1.461,0.11-2.208c0-8.05-2.289-15.545-6.193-21.946C325.136,370.385,311.781,362.229,296.481,362.229z"/>
		<path fill="#478df7" d="M45.61,237.409c7.442,6.536,17.169,10.53,27.854,10.53c23.346,0,42.273-18.927,42.273-42.272
			c0-2.44-0.253-4.814-0.648-7.14c-1.424-8.368-5.296-15.883-10.869-21.804c-7.707-8.188-18.617-13.329-30.755-13.329
			c-23.346,0-42.272,18.927-42.272,42.273c0,3.753,0.539,7.373,1.457,10.836C34.823,224.729,39.401,231.958,45.61,237.409z"/>
		<path fill="#478df7" d="M261.752,255.741c-1.763-8.715-6.638-16.283-13.395-21.559c-6.206-4.843-13.999-7.756-22.481-7.756
			c-20.22,0-36.61,16.39-36.61,36.61c0,20.216,16.39,36.61,36.61,36.61c3.868,0,7.585-0.608,11.085-1.718
			c9.257-2.938,16.903-9.461,21.342-17.936c2.656-5.071,4.178-10.833,4.178-16.953C262.483,260.535,262.226,258.099,261.752,255.741
			z"/>
		<path fill="#55b7fc" d="M119.793,268.348c0,43.465,68.05,76.736,160.507,79.887c4.749,0.163,9.543,0.27,14.415,0.27
			c5.944,0,11.791-0.131,17.552-0.372c50.307-2.097,93.118-13.166,121.336-29.914c-8.115-3.889-15.121-9.682-20.466-16.817
			c-2.57,1.26-5.263,2.492-8.099,3.676c-29.27,12.22-68.446,18.947-110.319,18.947s-81.049-6.728-110.319-18.947
			c-25.121-10.49-40.123-24.219-40.123-36.729c0-12.252,14.415-25.663,38.605-36.067c0.51-0.22,0.996-0.445,1.518-0.661
			c5.467-2.281,11.281-4.374,17.393-6.263c8.796-2.721,18.221-5.014,28.111-6.887c6.173-1.167,12.521-2.179,19.038-2.999
			c14.619-1.844,30.004-2.799,45.777-2.799c41.873,0,81.049,6.728,110.319,18.947c2.84,1.183,5.528,2.416,8.103,3.676
			c5.345-7.14,12.351-12.93,20.466-16.818c-31.449-18.67-81.021-30.286-138.888-30.286
			C194.996,188.192,119.793,222.648,119.793,268.348z"/>
		<path fill="#478df7" d="M418.396,268.348c0,9.425,3.346,18.07,8.911,24.811c5.614,6.806,13.501,11.661,22.489,13.439
			c2.46,0.485,5.002,0.755,7.604,0.755c21.543,0,39.005-17.462,39.005-39.005c0-21.542-17.462-39.005-39.005-39.005
			c-2.603,0-5.141,0.266-7.604,0.755c-8.992,1.779-16.875,6.634-22.489,13.439C421.737,250.277,418.396,258.919,418.396,268.348z"/>
	</g>
</g>
<g>
</g>
<g>
</g>
<g>
</g>
<g>
</g>
<g>
</g>
<g>
</g>
<g>
</g>
<g>
</g>
<g>
</g>
<g>
</g>
<g>
</g>
<g>
</g>
<g>
</g>
<g>
</g>
<g>
</g>
</svg>
